HIERARCHY
ROOT root
{
	OFFSET 0.000000 0.000000 0.000000
	CHANNELS 6 Xposition Yposition Zposition Zrotation Yrotation Xrotation
	JOINT lhip
	{
		OFFSET 0.058581 -0.082280 -0.017664
		CHANNELS 3 Zrotation Yrotation Xrotation
		JOINT lknee
		{
			OFFSET 0.043451 -0.386469 0.008037
			CHANNELS 3 Zrotation Yrotation Xrotation
			JOINT lankle
			{
				OFFSET -0.014790 -0.426874 -0.037428
				CHANNELS 3 Zrotation Yrotation Xrotation
				JOINT ltoe
				{
					OFFSET 0.041054 -0.060286 0.122042
					CHANNELS 3 Zrotation Yrotation Xrotation
					End Site
					{
						OFFSET 0.000000 0.000000 0.000000
					}
				}
			}
		}
	}
	JOINT rhip
	{
		OFFSET -0.060310 -0.090513 -0.013543
		CHANNELS 3 Zrotation Yrotation Xrotation
		JOINT rknee
		{
			OFFSET -0.043257 -0.383688 -0.004843
			CHANNELS 3 Zrotation Yrotation Xrotation
			JOINT rankle
			{
				OFFSET 0.019056 -0.420046 -0.034562
				CHANNELS 3 Zrotation Yrotation Xrotation
				JOINT rtoe
				{
					OFFSET -0.034840 -0.062106 0.130323
					CHANNELS 3 Zrotation Yrotation Xrotation
					End Site
					{
						OFFSET 0.000000 0.000000 0.000000
					}
				}
			}
		}
	}
	JOINT lowerback
	{
		OFFSET 0.004439 0.124404 -0.038385
		CHANNELS 3 Zrotation Yrotation Xrotation
		JOINT upperback
		{
			OFFSET 0.004488 0.137956 0.026820
			CHANNELS 3 Zrotation Yrotation Xrotation
			JOINT chest
			{
				OFFSET -0.002265 0.056032 0.002855
				CHANNELS 3 Zrotation Yrotation Xrotation
				JOINT lowerneck
				{
					OFFSET -0.013390 0.211636 -0.033468
					CHANNELS 3 Zrotation Yrotation Xrotation
					JOINT upperneck
					{
						OFFSET 0.010113 0.088937 0.050410
						CHANNELS 3 Zrotation Yrotation Xrotation
						End Site
						{
							OFFSET 0.000000 0.000000 0.000000
						}
					}
				}
				JOINT lclavicle
				{
					OFFSET 0.071702 0.114000 -0.018898
					CHANNELS 3 Zrotation Yrotation Xrotation
					JOINT lshoulder
					{
						OFFSET 0.122921 0.045205 -0.019046
						CHANNELS 3 Zrotation Yrotation Xrotation
						JOINT lelbow
						{
							OFFSET 0.255332 -0.015649 -0.022946
							CHANNELS 3 Zrotation Yrotation Xrotation
							JOINT lwrist
							{
								OFFSET 0.265709 0.012698 -0.007375
								CHANNELS 3 Zrotation Yrotation Xrotation
								End Site
								{
									OFFSET 0.000000 0.000000 0.000000
								}
							}
						}
					}
				}
				JOINT rclavicle
				{
					OFFSET -0.082954 0.112472 -0.023707
					CHANNELS 3 Zrotation Yrotation Xrotation
					JOINT rshoulder
					{
						OFFSET -0.113228 0.046853 -0.008472
						CHANNELS 3 Zrotation Yrotation Xrotation
						JOINT relbow
						{
							OFFSET -0.260127 -0.014369 -0.031269
							CHANNELS 3 Zrotation Yrotation Xrotation
							JOINT rwrist
							{
								OFFSET -0.269108 0.006794 -0.006027
								CHANNELS 3 Zrotation Yrotation Xrotation
								End Site
								{
									OFFSET 0.000000 0.000000 0.000000
								}
							}
						}
					}
				}
			}
		}
	}
}
MOTION
Frames: 7
Frame Time: 0.033333
0.359791 0.157500 0.997414 82.809032 -1.328360 92.038375 3.455343 6.125326 2.341002 -3.117674 2.859707 -2.001316 -0.695214 9.021748 -4.817840 0.000000 -0.000000 0.000000 -7.320280 -4.394152 -3.239532 1.287693 -2.752259 5.033440 5.645506 -0.607566 -6.286681 0.000000 -0.000000 0.000000 -3.083010 2.600816 -8.670147 2.712164 -3.957971 25.792586 -1.212561 0.828071 -11.421098 4.101695 5.119176 14.090366 2.712227 -1.595290 6.607059 -22.512859 -3.111139 -4.082881 -29.300866 -13.340521 12.215706 68.113647 -84.868300 -41.495501 12.506346 -44.258594 32.923647 22.874828 8.014039 4.655263 27.148928 14.498636 5.570891 -73.439562 88.464497 -64.512318 -17.868863 38.938117 9.427635 
0.357352 0.157599 0.997219 84.467883 -1.473583 91.828679 3.334637 5.851037 1.740084 -3.010128 1.717090 -1.259012 -0.786118 8.865797 -4.844414 0.000000 -0.000000 0.000000 -7.339365 -4.743995 -3.423832 1.128667 -3.181044 5.995970 5.443164 -1.330705 -6.744501 0.000000 -0.000000 0.000000 -3.156443 2.852926 -7.273137 2.518798 -3.548612 26.065026 -1.239334 0.790788 -11.364130 3.606971 3.941311 13.389005 3.397545 -2.013872 6.057834 -23.319894 -3.111136 -3.460317 -29.968176 -13.681917 12.281171 57.211037 -84.355823 -29.129682 18.456412 -46.204516 31.995838 23.919182 7.285763 5.083580 26.220957 14.401956 3.733749 -49.496781 88.336228 -39.782476 -18.418272 40.142467 8.322680 
0.356290 0.157777 0.997014 85.015232 -1.552513 91.785184 3.244886 5.771477 1.517353 -2.979231 1.435120 -1.023404 -0.798205 8.734015 -4.787341 0.000000 -0.000000 0.000000 -7.359236 -4.838234 -3.758668 1.007696 -3.456797 6.697731 5.347687 -1.522442 -6.999852 0.000000 -0.000000 0.000000 -3.214113 2.867809 -6.630895 2.413532 -3.452558 26.179007 -1.236871 0.868872 -11.260248 3.501376 3.773821 13.147860 3.524381 -2.249016 5.502108 -23.395686 -3.201569 -3.414779 -30.198995 -13.693257 12.300341 57.244486 -84.094955 -29.054918 19.264283 -46.477914 31.391147 24.080604 7.299545 5.124624 26.490229 14.149753 3.463439 -64.523354 88.151202 -54.601695 -18.217587 40.591531 8.384093 
0.355150 0.158007 0.996755 85.352687 -1.584785 91.739159 3.164317 5.705348 1.350237 -2.894029 1.234912 -0.864629 -0.749290 8.699552 -4.720854 0.000000 -0.000000 0.000000 -7.332664 -4.888962 -4.166560 0.883160 -3.588909 7.449022 5.243328 -1.739674 -7.213130 0.000000 -0.000000 0.000000 -3.240094 2.940980 -5.869128 2.358406 -3.352735 26.203616 -1.233408 0.926570 -11.284949 3.457433 3.727419 12.782968 3.595996 -2.415365 5.186014 -23.384673 -3.258541 -3.313590 -30.232277 -13.773525 12.264702 58.894518 -84.000935 -30.665036 20.426528 -46.419306 30.390787 24.266898 7.283104 5.250874 26.740762 13.940831 3.350339 -82.187024 87.943836 -72.088177 -18.936536 40.580582 7.578998 
0.354107 0.158016 0.996579 85.658812 -1.587851 91.889694 3.151933 5.615116 1.011589 -2.864357 1.161671 -0.757431 -0.704566 8.573250 -4.628772 0.000000 -0.000000 0.000000 -7.244375 -4.905611 -4.740218 0.748640 -3.786689 8.148999 5.208929 -1.913761 -7.364999 0.000000 -0.000000 0.000000 -3.282857 2.992659 -5.320851 2.310155 -3.262484 25.959600 -1.214145 0.941893 -11.241755 3.473584 3.883213 12.672781 3.725178 -2.682631 4.818535 -23.240086 -3.357973 -3.338156 -30.122238 -13.757927 12.415975 62.455494 -84.008240 -34.631580 20.558439 -46.091134 29.755059 24.207461 7.455887 5.341269 27.302653 13.508297 3.731445 -96.553321 87.237974 -86.576100 -19.749944 40.461420 7.027911 
0.353693 0.158085 0.996328 85.869760 -1.566703 91.988859 3.201274 5.613412 0.865406 -2.882660 1.098000 -0.785177 -0.738519 8.442164 -4.536247 0.000000 -0.000000 0.000000 -7.165460 -4.971876 -5.144652 0.663906 -3.896009 8.685722 5.185478 -1.985371 -7.464504 0.000000 -0.000000 0.000000 -3.478097 3.055199 -4.934412 2.440464 -3.202301 25.873726 -1.101609 0.956452 -11.344846 3.297992 3.841087 12.657414 3.872266 -2.748189 4.568542 -23.069637 -3.414888 -3.229709 -29.989199 -13.949093 12.477741 66.035548 -84.070347 -38.606739 21.247465 -45.608429 28.933868 24.296793 7.445052 5.370906 27.405557 13.192469 3.877710 -105.770625 87.043656 -95.236584 -20.731015 41.499649 7.228717 
0.353859 0.157858 0.996146 86.077473 -1.537643 92.132674 3.263559 5.572884 0.796919 -2.902512 0.927494 -1.008698 -0.579786 8.465550 -4.384462 0.000000 -0.000000 0.000000 -6.991539 -5.055447 -5.471203 0.497247 -3.894806 9.035267 5.124499 -2.249588 -7.518726 0.000000 -0.000000 0.000000 -3.789198 3.045338 -4.824954 2.617427 -3.225472 25.638017 -0.968479 0.948323 -11.236639 3.176472 3.820533 12.522887 4.001771 -2.488416 4.609174 -22.772514 -3.347065 -3.284803 -29.674687 -14.347560 12.537658 70.229286 -84.339699 -43.649053 21.342472 -44.065641 27.211556 24.313262 7.087721 5.058543 27.506718 13.485176 3.866925 -123.360219 86.535344 -113.939635 -20.641722 39.210296 5.167936 
